<svg width="240" height="54" viewBox="0 0 240 54" fill="none" xmlns="http://www.w3.org/2000/svg">
<path fill-rule="evenodd" clip-rule="evenodd" d="M73.1082 29.5045L73.7868 27.694H75.0091V15.1322H73.1082V13.3443H78.9473L78.2682 15.1322H77.0464V27.694H78.9473V29.5045H73.1082ZM87.7734 21.2434C87.7734 19.4778 86.9358 18.5952 85.2837 18.5952C83.6312 18.5952 82.7941 19.5005 82.7941 21.2661C82.7941 22.9409 83.6312 23.778 85.3065 23.778C86.9585 23.778 87.7734 22.9181 87.7734 21.2434ZM89.1316 30.9531C89.1316 30.2967 88.9503 29.8665 88.5883 29.6403C88.2036 29.4141 87.479 29.301 86.393 29.301H84.3103C82.6129 29.301 81.7757 30.0251 81.7757 31.4963C81.7757 32.7636 82.7714 33.42 84.7632 33.42C87.683 33.42 89.1316 32.605 89.1316 30.9531ZM79.8743 31.564C79.8743 30.0023 80.7569 29.0067 82.5225 28.5765C81.8207 28.2372 81.4587 27.6485 81.4587 26.879C81.4587 26.0414 81.9565 25.3401 82.9299 24.7514C81.549 24.1854 80.825 22.7369 80.825 21.3338C80.825 18.5049 82.5901 17.1467 85.3514 17.1467C85.9855 17.1467 86.5283 17.2144 87.0039 17.3729H91.191L90.6028 18.9118H89.0185C89.4936 19.5459 89.7425 20.3381 89.7425 21.2661C89.7425 23.778 87.9092 25.1589 85.2837 25.1589C84.8763 25.1589 84.5592 25.1362 84.333 25.0912C83.5863 25.4982 83.2243 25.9965 83.2243 26.5619C83.2243 27.1734 83.8352 27.49 85.0121 27.49H87.0716C89.5163 27.49 91.0325 28.5992 91.0325 30.7718C91.0325 33.5558 88.9503 34.9367 84.7859 34.9367C81.9565 34.9367 79.8743 33.9632 79.8743 31.564ZM100.198 17.2825L99.949 19.1158C99.5642 19.0254 99.0437 18.9572 98.6362 18.9572C96.7575 18.9572 95.1055 20.587 95.1055 23.0312V29.5045H93.1137V17.3729H94.743L94.9697 19.5909H95.06C95.8295 18.2554 97.0746 17.1467 98.772 17.1467C99.2244 17.1467 99.7904 17.1921 100.198 17.2825ZM102.528 22.2391H108.707C108.685 20.1796 107.779 18.776 105.765 18.776C103.863 18.776 102.732 20.0665 102.528 22.2391ZM110.79 22.6238V23.8234H102.483C102.551 26.5619 103.932 28.0332 106.353 28.0332C107.53 28.0332 108.73 27.8071 109.68 27.4451L110.246 28.9385C109.001 29.4818 107.915 29.7307 106.263 29.7307C102.8 29.7307 100.424 27.5809 100.424 23.5291C100.424 19.5459 102.573 17.1467 105.788 17.1467C108.888 17.1467 110.79 19.3193 110.79 22.6238ZM114.048 12.8238C114.659 12.8238 115.202 13.2085 115.202 14.091C115.202 14.9514 114.659 15.3584 114.048 15.3584C113.391 15.3584 112.871 14.9514 112.871 14.091C112.871 13.2085 113.391 12.8238 114.048 12.8238ZM111.444 33.2842C112.735 32.696 113.029 31.8356 113.029 29.6858V17.3729H115.021V29.7989C115.021 32.1754 114.387 34.0536 112.079 34.9367L111.444 33.2842ZM123.145 23.6427C120.112 23.7558 119.139 24.6156 119.139 26.1545C119.139 27.5127 120.045 28.1236 121.357 28.1236C123.394 28.1236 124.933 27.0148 124.933 24.661V23.5745L123.145 23.6427ZM126.902 21.2434V29.5045H125.454L125.069 27.7843H124.979C123.915 29.1198 122.942 29.7307 120.905 29.7307C118.709 29.7307 117.08 28.5992 117.08 26.1323C117.08 23.7103 118.936 22.3749 122.896 22.2618L124.956 22.1941V21.4696C124.956 19.4551 124.028 18.776 122.444 18.776C121.176 18.776 120.022 19.2289 119.026 19.704L118.415 18.2105C119.479 17.6445 120.972 17.1694 122.557 17.1694C125.499 17.1694 126.902 18.414 126.902 21.2434ZM141.68 17.803C141.544 17.441 141.069 15.947 140.911 15.3811C140.684 16.309 140.39 17.2825 140.209 17.803L138.376 22.6919H143.491L141.68 17.803ZM144.102 24.5025H137.696L135.773 29.5045H133.713L140.028 13.2762H141.861L148.153 29.5045H146.048L144.102 24.5025ZM157.318 23.8461V23.4841C157.318 20.4739 156.503 18.7987 153.81 18.7987C151.66 18.7987 150.596 20.632 150.596 23.5068C150.596 26.4039 151.66 28.0787 153.833 28.0787C156.39 28.0787 157.318 26.6751 157.318 23.8461ZM148.537 23.4614C148.537 19.297 150.528 17.1467 153.539 17.1467C155.417 17.1467 156.549 17.9389 157.295 18.9345H157.431C157.386 18.5498 157.295 17.5991 157.295 17.1467V13.0727L159.287 12.3032V29.5045H157.68L157.386 27.8747H157.295C156.571 28.9158 155.417 29.7307 153.516 29.7307C150.506 29.7307 148.537 27.6258 148.537 23.4614ZM160.938 17.3729H163.065L165.646 24.5252C166.008 25.5209 166.483 26.9921 166.619 27.7389H166.71C166.868 26.9921 167.388 25.4981 167.728 24.5252L170.308 17.3729H172.436L167.818 29.5045H165.533L160.938 17.3729ZM175.264 22.2391H181.443C181.42 20.1796 180.515 18.776 178.5 18.776C176.599 18.776 175.467 20.0665 175.264 22.2391ZM183.525 22.6238V23.8234H175.218C175.286 26.5619 176.667 28.0332 179.089 28.0332C180.266 28.0332 181.465 27.8071 182.416 27.4451L182.981 28.9385C181.737 29.4818 180.65 29.7307 178.998 29.7307C175.535 29.7307 173.159 27.5809 173.159 23.5291C173.159 19.5459 175.309 17.1467 178.523 17.1467C181.624 17.1467 183.525 19.3193 183.525 22.6238ZM195.904 21.6054V29.5045H193.935V21.7412C193.935 19.7949 193.075 18.8214 191.219 18.8214C188.526 18.8214 187.665 20.3831 187.665 23.2125V29.5045H185.674V17.3729H187.281L187.575 19.0254H187.688C188.48 17.7576 189.974 17.1467 191.513 17.1467C194.41 17.1467 195.904 18.4821 195.904 21.6054ZM204.005 27.807L204.549 29.2329C204.119 29.5045 203.259 29.7307 202.331 29.7307C200.43 29.7307 198.777 28.9158 198.777 25.9738V15.3361L200.769 14.5889V17.3729H204.277V18.9118H200.769V25.9283C200.769 27.3996 201.561 28.1014 202.67 28.1014C203.123 28.1014 203.734 27.9429 204.005 27.807ZM206.788 29.5045V17.3729H208.78V29.5045H206.788ZM208.961 14.091C208.961 14.9514 208.418 15.3583 207.807 15.3583C207.151 15.3583 206.63 14.9514 206.63 14.091C206.63 13.2085 207.151 12.8238 207.807 12.8238C208.418 12.8238 208.961 13.2085 208.961 14.091ZM215.23 29.7307C213.533 29.7307 212.355 29.4591 211.428 28.9612L212.016 27.4223C212.808 27.7616 214.121 28.1236 215.275 28.1236C217.29 28.1236 218.149 27.4223 218.149 26.3358C218.149 25.4305 217.539 24.8872 215.162 23.982C212.808 23.0767 211.405 22.3522 211.405 20.3603C211.405 18.3009 213.238 17.1467 215.954 17.1467C217.425 17.1467 218.693 17.4633 219.825 17.9616L219.213 19.5682C218.172 19.1158 216.995 18.776 215.818 18.776C214.189 18.776 213.306 19.342 213.306 20.2472C213.306 21.2661 214.098 21.6731 216.43 22.5561C218.738 23.416 220.074 24.2082 220.074 26.1545C220.074 28.5088 218.195 29.7307 215.23 29.7307ZM227.745 27.807L228.288 29.2329C227.859 29.5045 226.998 29.7307 226.07 29.7307C224.169 29.7307 222.517 28.9158 222.517 25.9738V15.3361L224.509 14.5889V17.3729H228.017V18.9118H224.509V25.9283C224.509 27.3996 225.301 28.1014 226.41 28.1014C226.862 28.1014 227.473 27.9429 227.745 27.807ZM235.258 23.6427C232.226 23.7558 231.253 24.6156 231.253 26.1545C231.253 27.5127 232.158 28.1236 233.471 28.1236C235.508 28.1236 237.047 27.0148 237.047 24.661V23.5745L235.258 23.6427ZM239.016 21.2434V29.5045H237.567L237.183 27.7843H237.092C236.028 29.1198 235.055 29.7307 233.018 29.7307C230.822 29.7307 229.193 28.5992 229.193 26.1323C229.193 23.7103 231.049 22.3749 235.009 22.2618L237.069 22.1941V21.4696C237.069 19.4551 236.141 18.776 234.557 18.776C233.289 18.776 232.135 19.2289 231.139 19.704L230.528 18.2105C231.592 17.6445 233.086 17.1694 234.67 17.1694C237.613 17.1694 239.016 18.414 239.016 21.2434ZM81.7768 48.1155V47.7534C81.7768 44.7433 80.9618 43.068 78.2687 43.068C76.1184 43.068 75.0546 44.9013 75.0546 47.7762C75.0546 50.6732 76.1184 52.348 78.2915 52.348C80.8487 52.348 81.7768 50.9444 81.7768 48.1155ZM72.9951 47.7307C72.9951 43.5664 74.9869 41.416 77.9971 41.416C79.8758 41.416 81.0073 42.2082 81.754 43.2038H81.8898C81.8449 42.8191 81.754 41.8684 81.754 41.416V37.342L83.7458 36.5725V53.7738H82.1388L81.8449 52.144H81.754C81.03 53.1851 79.8758 54 77.9744 54C74.9642 54 72.9951 51.8951 72.9951 47.7307ZM91.3945 52.348C93.8387 52.348 94.948 50.5597 94.948 47.6853C94.948 44.8109 93.8387 43.0907 91.3718 43.0907C88.9049 43.0907 87.8411 44.8109 87.8411 47.6853C87.8411 50.5597 88.9276 52.348 91.3945 52.348ZM91.3491 54C88.1354 54 85.7816 51.7143 85.7816 47.6853C85.7816 43.6794 87.9314 41.416 91.4172 41.416C94.699 41.416 97.0074 43.6794 97.0074 47.6853C97.0074 51.7143 94.8121 54 91.3491 54ZM109.703 54C107.892 54 106.285 53.7284 105.266 53.2305L105.901 51.5558C106.602 51.8724 108.073 52.2349 109.793 52.2349C112.193 52.2349 113.437 51.2387 113.437 49.6316C113.437 48.0473 112.555 47.3687 109.635 46.3049C106.874 45.3087 105.47 44.0187 105.47 41.5064C105.47 38.9491 107.575 37.3869 110.631 37.3869C112.396 37.3869 113.867 37.7494 115.09 38.2927L114.433 40.0351C113.301 39.56 111.989 39.1753 110.586 39.1753C108.571 39.1753 107.53 40.126 107.53 41.5291C107.53 43.1589 108.435 43.8153 111.061 44.7882C113.913 45.852 115.474 46.9158 115.474 49.4509C115.474 52.3253 113.234 54 109.703 54ZM125.273 36.6629C124.707 37.5005 123.1 39.2429 122.037 40.0578H120.724V39.7862C121.38 38.9491 122.354 37.4551 122.874 36.4367H125.273V36.6629ZM118.981 46.5084H125.16C125.138 44.4489 124.232 43.0453 122.218 43.0453C120.316 43.0453 119.185 44.3358 118.981 46.5084ZM127.243 46.8931V48.0927H118.936C119.004 50.8313 120.385 52.3025 122.806 52.3025C123.983 52.3025 125.183 52.0763 126.133 51.7143L126.699 53.2078C125.454 53.7511 124.368 54 122.716 54C119.253 54 116.877 51.8501 116.877 47.7984C116.877 43.8152 119.026 41.416 122.241 41.416C125.341 41.416 127.243 43.5885 127.243 46.8931ZM134.597 52.0764L135.14 53.5022C134.71 53.7738 133.85 54 132.922 54C131.021 54 129.369 53.1851 129.369 50.2431V39.6055L131.36 38.8582V41.6422H134.868V43.1811H131.36V50.1976C131.36 51.6689 132.153 52.3707 133.262 52.3707C133.714 52.3707 134.325 52.2122 134.597 52.0764ZM137.38 53.7738V41.6422H139.372V53.7738H137.38ZM139.553 38.3604C139.553 39.2207 139.01 39.6276 138.399 39.6276C137.742 39.6276 137.222 39.2207 137.222 38.3604C137.222 37.4778 137.742 37.0931 138.399 37.0931C139.01 37.0931 139.553 37.4778 139.553 38.3604ZM160.081 45.8747V53.7738H158.112V45.9651C158.112 44.0642 157.32 43.0907 155.644 43.0907C153.291 43.0907 152.363 44.4938 152.363 47.0744V53.7738H150.394V45.9651C150.394 44.0642 149.601 43.0907 147.904 43.0907C145.46 43.0907 144.668 44.6524 144.668 47.4818V53.7738H142.676V41.6422H144.283L144.577 43.2947H144.69C145.437 42.0269 146.817 41.416 148.266 41.416C150.122 41.416 151.39 42.0724 151.978 43.4527H152.091C152.906 42.0724 154.4 41.416 155.984 41.416C158.723 41.416 160.081 42.7514 160.081 45.8747ZM167.864 52.348C170.309 52.348 171.418 50.5597 171.418 47.6853C171.418 44.8109 170.309 43.0907 167.842 43.0907C165.375 43.0907 164.311 44.8109 164.311 47.6853C164.311 50.5597 165.398 52.348 167.864 52.348ZM167.819 54C164.605 54 162.252 51.7143 162.252 47.6853C162.252 43.6794 164.402 41.416 167.887 41.416C171.169 41.416 173.478 43.6794 173.478 47.6853C173.478 51.7143 171.282 54 167.819 54ZM187.011 39.356H184.362V52.0309H186.558C190.926 52.0309 193.121 49.8583 193.121 45.6031C193.121 41.3029 190.903 39.356 187.011 39.356ZM186.829 53.7738H182.325V37.6136H187.304C192.171 37.6136 195.272 40.3522 195.272 45.5354C195.272 50.9898 192.148 53.7738 186.829 53.7738ZM197.669 53.7738V41.6422H199.661V53.7738H197.669ZM199.842 38.3604C199.842 39.2207 199.299 39.6276 198.688 39.6276C198.031 39.6276 197.511 39.2207 197.511 38.3604C197.511 37.4778 198.031 37.0931 198.688 37.0931C199.299 37.0931 199.842 37.4778 199.842 38.3604ZM207.785 47.912C204.753 48.025 203.779 48.8849 203.779 50.4239C203.779 51.782 204.685 52.3929 205.998 52.3929C208.034 52.3929 209.573 51.2842 209.573 48.9304V47.8438L207.785 47.912ZM211.542 45.5127V53.7738H210.094L209.709 52.0536H209.619C208.555 53.3891 207.582 54 205.545 54C203.349 54 201.72 52.8685 201.72 50.4016C201.72 47.9796 203.576 46.6442 207.537 46.5311L209.596 46.4634V45.7389C209.596 43.7244 208.668 43.0453 207.084 43.0453C205.816 43.0453 204.662 43.4982 203.666 43.9733L203.055 42.4798C204.119 41.9138 205.612 41.4387 207.197 41.4387C210.139 41.4387 211.542 42.6833 211.542 45.5127ZM213.465 38.2473C213.669 38.2473 213.804 38.1342 213.804 37.9529C213.804 37.7722 213.691 37.6813 213.465 37.6813H213.262V38.2473H213.465ZM212.945 37.4096H213.465C213.918 37.4096 214.121 37.5909 214.121 37.9529C214.121 38.2018 213.963 38.3376 213.804 38.4058L214.28 39.198H213.918L213.51 38.4962H213.262V39.198H212.945V37.4096ZM214.778 38.3149C214.778 37.6136 214.257 37.0249 213.51 37.0249C212.763 37.0249 212.243 37.5682 212.243 38.3149C212.243 39.0167 212.763 39.5827 213.51 39.5827C214.212 39.5827 214.778 39.0621 214.778 38.3149ZM212.016 38.3149C212.016 37.4324 212.627 36.7987 213.51 36.7987C214.348 36.7987 215.004 37.4324 215.004 38.3149C215.004 39.1753 214.37 39.8089 213.51 39.8089C212.627 39.8089 212.016 39.1753 212.016 38.3149Z" fill="#303336"/>
<path fill-rule="evenodd" clip-rule="evenodd" d="M31.1415 50.2773C31.1415 50.4962 31.3923 50.4969 31.4375 50.2773C31.7708 48.6604 32.2772 47.5827 33.0689 46.5361L31.2886 46.5372C31.2074 46.5372 31.1415 46.603 31.1415 46.6844V50.2773ZM44.2146 27.8339C44.1414 27.5976 43.9369 27.5819 43.9389 27.8295C43.9591 30.1672 43.2867 32.176 39.0199 36.4428L35.6451 39.8149C34.1092 41.3507 32.7283 42.7533 31.912 44.1549H35.245C35.3727 44.0268 35.5037 43.8959 35.6392 43.7604L40.481 38.9138C44.5132 34.8815 45.0755 30.6162 44.2146 27.8339ZM39.6898 42.0922L35.6451 46.14C33.197 48.5881 31.1415 50.6975 31.1415 53.0044L31.1438 53.6467C31.1438 53.8212 31.3607 53.8486 31.4274 53.666C32.1832 51.6009 34.7087 49.3964 39.341 50.1777C39.341 50.1777 59.5213 53.6649 59.6909 53.6799C59.8879 53.6972 59.9855 53.5032 59.8584 53.352C59.782 53.2612 50.4659 43.9456 50.4659 43.9456L39.6898 42.0922ZM25.0902 46.5361C25.009 46.5361 24.9431 46.4703 24.9431 46.389V44.3009C24.9431 44.2195 25.009 44.1537 25.0902 44.1537L28.6224 44.1546C28.7036 44.1546 28.7695 44.0887 28.7695 44.0074C28.7602 42.1317 27.3463 40.8574 21.6815 41.8433L9.44968 43.9456C9.44968 43.9456 0.133525 53.2612 0.0571681 53.352C-0.0699268 53.5032 0.0275973 53.6972 0.224621 53.6799C0.394206 53.6649 20.5746 50.1777 20.5746 50.1777C25.2069 49.3964 27.7323 51.6009 28.4881 53.666C28.555 53.8486 28.7719 53.8212 28.7719 53.6467C28.7719 53.5208 28.7724 46.6833 28.7724 46.6833C28.7724 46.6019 28.7066 46.5361 28.6252 46.5361H25.0902ZM19.4521 17.3513C15.4197 21.3836 14.8575 25.649 15.7184 28.4313C15.7916 28.6676 15.9961 28.6833 15.9941 28.4356C15.9739 26.0979 16.6463 24.0892 20.913 19.8224L30.1113 10.6269C32.5594 8.1787 34.6149 6.06937 34.6149 3.76247V0.164442C34.6149 -0.0544376 34.3641 -0.0551902 34.3189 0.164442C33.7138 3.10072 32.5393 4.25934 30.1173 6.68132L19.4521 17.3513ZM34.6236 10.0814V6.45893C34.6236 6.24008 34.3728 6.2393 34.3276 6.45893C33.7225 9.39521 32.551 10.572 30.129 12.994L20.4684 22.6465C15.7803 27.3345 14.9691 31.8719 17.3536 34.7876C17.5125 34.9819 17.6836 34.8656 17.5798 34.6309C16.0035 31.0642 19.7837 27.2823 21.5835 25.4825L30.12 16.9458C32.5681 14.4976 34.6236 12.3882 34.6236 10.0814ZM20.7335 28.7061C16.045 33.3947 18.2009 37.9228 20.9356 39.1693C21.1755 39.2786 21.2708 39.0839 21.0874 38.925C18.8944 37.0252 19.5603 33.8296 22.318 31.0719L30.1102 23.2796C32.5583 20.8315 34.6138 18.7221 34.6138 16.4152V12.8172C34.6138 12.5983 34.363 12.5976 34.3178 12.8172C33.7127 15.7535 32.5408 16.9072 30.1188 19.3292L20.7335 28.7061ZM31.1328 40.3603V43.9828C31.1328 44.2017 31.3836 44.2024 31.4288 43.9828C32.0339 41.0465 33.2054 39.8697 35.6274 37.4477L39.4646 33.6187C44.1527 28.9306 44.9639 24.3933 42.5794 21.4776C42.4205 21.2833 42.2494 21.3996 42.3532 21.6343C43.9295 25.2009 40.1493 28.9828 38.3494 30.7827L35.6364 33.496C33.1883 35.9441 31.1328 38.0535 31.1328 40.3603ZM35.6376 31.1126C33.2156 33.5345 32.0437 34.6882 31.4386 37.6245C31.3934 37.8442 31.1426 37.8434 31.1426 37.6245V34.0265C31.1426 31.7196 33.1981 29.6103 35.6462 27.1621L37.615 25.1932C40.3727 22.4356 41.0386 19.24 38.8457 17.3402C38.6622 17.1813 38.7575 16.9865 38.9974 17.0959C41.7321 18.3423 43.888 22.8705 39.1995 27.5591L35.6376 31.1126Z" fill="#303336"/>
<path fill-rule="evenodd" clip-rule="evenodd" d="M58.3705 46.8044C58.5831 46.8044 58.7099 46.6859 58.7099 46.5141C58.7099 46.3221 58.6036 46.2403 58.3666 46.2403H58.1663V46.8044H58.3705ZM57.8558 45.9788H58.3788C58.824 45.9788 59.0243 46.1546 59.0243 46.5062C59.0243 46.7633 58.8691 46.9063 58.7055 46.9719L59.1796 47.7647H58.8284L58.4195 47.0576H58.1663V47.7647H57.8558V45.9788ZM59.6825 46.8696C59.6825 46.1629 59.1551 45.5866 58.4156 45.5866C57.6761 45.5866 57.1447 46.1218 57.1447 46.8696C57.1447 47.5766 57.6761 48.1526 58.4156 48.1526C59.1144 48.1526 59.6825 47.6173 59.6825 46.8696ZM56.916 46.8696C56.916 45.9994 57.5453 45.3701 58.4156 45.3701C59.2451 45.3701 59.9151 45.9994 59.9151 46.8696C59.9151 47.7402 59.2859 48.3691 58.4156 48.3691C57.5453 48.3691 56.916 47.7402 56.916 46.8696Z" fill="#303336"/>
</svg>
